<svg width="189.000000" height="56.000000" viewBox="0 0 189 56" fill="none" xmlns="http://www.w3.org/2000/svg" xmlns:xlink="http://www.w3.org/1999/xlink">
	<desc>
			Created with Pixso.
	</desc>
	<defs/>
	<path id="Vector" d="M182 56L7 56C3.15002 56 0 52.85 0 49L0 7C0 3.15002 3.15002 0 7 0L182 0C185.85 0 189 3.15002 189 7L189 49C189 52.85 185.85 56 182 56Z" fill="#000000" fill-opacity="1.000000" fill-rule="nonzero"/>
	<path id="Vector" d="M182 1.12C183.559 1.12 185.055 1.7395 186.158 2.84216C187.26 3.94495 187.88 5.44055 187.88 7L187.88 49C187.88 50.5594 187.26 52.0551 186.158 53.1578C185.055 54.2605 183.559 54.88 182 54.88L7 54.88C5.44055 54.88 3.94495 54.2605 2.84216 53.1578C1.7395 52.0551 1.12 50.5594 1.12 49L1.12 7C1.12 5.44055 1.7395 3.94495 2.84216 2.84216C3.94495 1.7395 5.44055 1.12 7 1.12L182 1.12ZM182 0L7 0C3.15002 0 0 3.15002 0 7L0 49C0 52.85 3.15002 56 7 56L182 56C185.85 56 189 52.85 189 49L189 7C189 3.15002 185.85 0 182 0Z" fill="#FFFFFF" fill-opacity="1.000000" fill-rule="nonzero"/>
	<path id="Vector" d="M66.3879 14.3358C66.3879 15.5117 66.038 16.4497 65.3379 17.1357C64.554 17.9618 63.532 18.3817 62.2579 18.3817C61.0399 18.3817 60.0039 17.9618 59.1639 17.1217C58.324 16.2817 57.9039 15.2318 57.9039 13.9998C57.9039 12.7677 58.324 11.7178 59.1639 10.8778C60.0039 10.0377 61.0399 9.60376 62.2579 9.60376C62.8739 9.60376 63.4619 9.7157 64.0079 9.92578C64.554 10.1498 65.002 10.4578 65.3519 10.8497L64.5819 11.6198C64.33 11.3118 63.9939 11.0598 63.574 10.8917C63.1589 10.7112 62.7104 10.6206 62.2579 10.6257C61.3479 10.6257 60.564 10.9478 59.934 11.5778C59.304 12.2218 58.996 13.0198 58.996 13.9857C58.996 14.9518 59.304 15.7498 59.934 16.3938C60.564 17.0238 61.334 17.3457 62.2579 17.3457C63.0979 17.3457 63.7839 17.1078 64.3439 16.6458C64.9039 16.1837 65.226 15.5258 65.3099 14.7137L62.2579 14.7137L62.2579 13.7058L66.3319 13.7058C66.36 13.9298 66.3879 14.1398 66.3879 14.3358ZM72.8419 9.7998L72.8419 10.8358L69.0199 10.8358L69.0199 13.4957L72.4639 13.4957L72.4639 14.5038L69.0199 14.5038L69.0199 17.1638L72.8419 17.1638L72.8419 18.1997L67.9419 18.1997L67.9419 9.7998L72.8419 9.7998ZM77.392 10.8358L77.392 18.1997L76.314 18.1997L76.314 10.8358L73.9619 10.8358L73.9619 9.7998L79.73 9.7998L79.73 10.8358L77.392 10.8358ZM84.9939 18.1997L83.9159 18.1997L83.9159 9.7998L84.9939 9.7998L84.9939 18.1997ZM89.782 10.8358L89.782 18.1997L88.704 18.1997L88.704 10.8358L86.3519 10.8358L86.3519 9.7998L92.12 9.7998L92.12 10.8358L89.782 10.8358ZM104.286 13.9998C104.286 15.2457 103.866 16.2817 103.04 17.1217C102.2 17.9618 101.178 18.3817 99.96 18.3817C98.7419 18.3817 97.72 17.9618 96.8799 17.1217C96.054 16.2817 95.6339 15.2457 95.6339 13.9998C95.6339 12.7538 96.054 11.7178 96.8799 10.8778C97.7059 10.0377 98.7279 9.60376 99.96 9.60376C101.178 9.60376 102.2 10.0238 103.04 10.8778C103.88 11.7318 104.286 12.7677 104.286 13.9998ZM96.7539 13.9998C96.7539 14.9657 97.0619 15.7777 97.6639 16.4077C98.2799 17.0377 99.0499 17.3597 99.96 17.3597C100.87 17.3597 101.64 17.0377 102.242 16.4077C102.858 15.7777 103.166 14.9797 103.166 13.9998C103.166 13.0198 102.858 12.2218 102.242 11.5918C101.626 10.9618 100.87 10.6398 99.96 10.6398C99.0499 10.6398 98.2799 10.9618 97.6639 11.5918C97.0619 12.2218 96.7539 13.0338 96.7539 13.9998ZM106.876 18.1997L105.798 18.1997L105.798 9.7998L107.114 9.7998L111.202 16.3378L111.244 16.3378L111.202 14.7137L111.202 9.7998L112.28 9.7998L112.28 18.1997L111.16 18.1997L106.89 11.3538L106.848 11.3538L106.89 12.9778L106.89 18.1997L106.876 18.1997Z" fill="#FFFFFF" fill-opacity="1.000000" fill-rule="nonzero"/>
	<path id="Vector" d="M65.3379 17.1357C64.554 17.9618 63.532 18.3817 62.2579 18.3817C61.0399 18.3817 60.0039 17.9618 59.1639 17.1217C58.324 16.2817 57.9039 15.2318 57.9039 13.9998C57.9039 12.7677 58.324 11.7178 59.1639 10.8778C60.0039 10.0377 61.0399 9.60376 62.2579 9.60376C62.8739 9.60376 63.4619 9.7157 64.0079 9.92578C64.554 10.1498 65.002 10.4578 65.3519 10.8497L64.5819 11.6198C64.33 11.3118 63.9939 11.0598 63.574 10.8917C63.1589 10.7112 62.7104 10.6206 62.2579 10.6257C61.3479 10.6257 60.564 10.9478 59.934 11.5778C59.304 12.2218 58.996 13.0198 58.996 13.9857C58.996 14.9518 59.304 15.7498 59.934 16.3938C60.564 17.0238 61.334 17.3457 62.2579 17.3457C63.0979 17.3457 63.7839 17.1078 64.3439 16.6458C64.9039 16.1837 65.226 15.5258 65.3099 14.7137L62.2579 14.7137L62.2579 13.7058L66.3319 13.7058C66.36 13.9298 66.3879 14.1398 66.3879 14.3358C66.3879 15.5117 66.038 16.4497 65.3379 17.1357ZM72.8419 10.8358L69.0199 10.8358L69.0199 13.4957L72.464 13.4957L72.464 14.5038L69.0199 14.5038L69.0199 17.1638L72.8419 17.1638L72.8419 18.1997L67.9419 18.1997L67.9419 9.7998L72.8419 9.7998L72.8419 10.8358ZM77.392 18.1997L76.314 18.1997L76.314 10.8358L73.9619 10.8358L73.9619 9.7998L79.73 9.7998L79.73 10.8358L77.392 10.8358L77.392 18.1997ZM83.9159 18.1997L83.9159 9.7998L84.9939 9.7998L84.9939 18.1997L83.9159 18.1997ZM89.782 18.1997L88.704 18.1997L88.704 10.8358L86.3519 10.8358L86.3519 9.7998L92.12 9.7998L92.12 10.8358L89.782 10.8358L89.782 18.1997ZM103.04 17.1217C102.2 17.9618 101.178 18.3817 99.96 18.3817C98.7419 18.3817 97.72 17.9618 96.8799 17.1217C96.054 16.2817 95.6339 15.2457 95.6339 13.9998C95.6339 12.7538 96.054 11.7178 96.8799 10.8778C97.7059 10.0377 98.7279 9.60376 99.96 9.60376C101.178 9.60376 102.2 10.0238 103.04 10.8778C103.88 11.7318 104.286 12.7677 104.286 13.9998C104.286 15.2457 103.866 16.2817 103.04 17.1217ZM97.6639 16.4077C98.2799 17.0377 99.0499 17.3597 99.96 17.3597C100.87 17.3597 101.64 17.0377 102.242 16.4077C102.858 15.7777 103.166 14.9797 103.166 13.9998C103.166 13.0198 102.858 12.2218 102.242 11.5918C101.626 10.9618 100.87 10.6398 99.96 10.6398C99.0499 10.6398 98.2799 10.9618 97.6639 11.5918C97.0619 12.2218 96.7539 13.0338 96.7539 13.9998C96.7539 14.9657 97.0619 15.7777 97.6639 16.4077ZM105.798 18.1997L105.798 9.7998L107.114 9.7998L111.202 16.3378L111.244 16.3378L111.202 14.7137L111.202 9.7998L112.28 9.7998L112.28 18.1997L111.16 18.1997L106.89 11.3538L106.848 11.3538L106.89 12.9778L106.89 18.1997L106.876 18.1997L105.798 18.1997Z" stroke="#FFFFFF" stroke-opacity="1.000000" stroke-width="0.500000"/>
	<path id="Vector" d="M95.3959 30.4498C92.106 30.4498 89.418 32.9559 89.418 36.3999C89.418 39.8298 92.106 42.3499 95.3959 42.3499C98.6859 42.3499 101.374 39.8298 101.374 36.3999C101.374 32.9559 98.6859 30.4498 95.3959 30.4498ZM95.3959 40.0118C93.59 40.0118 92.0359 38.5278 92.0359 36.3999C92.0359 34.2579 93.59 32.7878 95.3959 32.7878C97.2019 32.7878 98.756 34.2579 98.756 36.3999C98.756 38.5278 97.188 40.0118 95.3959 40.0118ZM82.3479 30.4498C79.058 30.4498 76.3699 32.9559 76.3699 36.3999C76.3699 39.8298 79.058 42.3499 82.3479 42.3499C85.6379 42.3499 88.3259 39.8298 88.3259 36.3999C88.3259 32.9559 85.6379 30.4498 82.3479 30.4498ZM82.3479 40.0118C80.542 40.0118 78.9879 38.5278 78.9879 36.3999C78.9879 34.2579 80.542 32.7878 82.3479 32.7878C84.1539 32.7878 85.7079 34.2579 85.7079 36.3999C85.7079 38.5278 84.1539 40.0118 82.3479 40.0118ZM66.8359 32.2839L66.8359 34.8038L72.8839 34.8038C72.7019 36.2179 72.226 37.2678 71.512 37.9819C70.6299 38.8639 69.2579 39.8298 66.85 39.8298C63.126 39.8298 60.214 36.8339 60.214 33.1099C60.214 29.3859 63.126 26.3899 66.85 26.3899C68.8519 26.3899 70.3219 27.1738 71.3999 28.1959L73.178 26.4178C71.6659 24.9758 69.6639 23.8699 66.8359 23.8699C61.74 23.8699 57.4559 28.0139 57.4559 33.1239C57.4559 38.2198 61.74 42.3779 66.8359 42.3779C69.594 42.3779 71.6659 41.4818 73.2899 39.7878C74.9559 38.1218 75.4739 35.7699 75.4739 33.8799C75.4739 33.2919 75.4319 32.7458 75.334 32.2979L66.8359 32.2979L66.8359 32.2839ZM130.27 34.2439C129.78 32.9138 128.268 30.4498 125.174 30.4498C122.108 30.4498 119.56 32.8579 119.56 36.3999C119.56 39.7319 122.08 42.3499 125.468 42.3499C128.198 42.3499 129.78 40.6838 130.424 39.7179L128.394 38.3599C127.722 39.3539 126.798 40.0118 125.468 40.0118C124.138 40.0118 123.186 39.4099 122.584 38.2059L130.55 34.9159L130.27 34.2439ZM122.15 36.2319C122.08 33.9359 123.928 32.7599 125.258 32.7599C126.294 32.7599 127.176 33.2778 127.47 34.0199L122.15 36.2319ZM115.682 41.9999L118.3 41.9999L118.3 24.4999L115.682 24.4999L115.682 41.9999ZM111.398 31.7799L111.3 31.7799C110.712 31.0798 109.592 30.4498 108.164 30.4498C105.182 30.4498 102.452 33.0679 102.452 36.4279C102.452 39.7599 105.182 42.3639 108.164 42.3639C109.578 42.3639 110.712 41.7339 111.3 41.0059L111.384 41.0059L111.384 41.8599C111.384 44.1418 110.166 45.3599 108.206 45.3599C106.61 45.3599 105.616 44.2119 105.21 43.2458L102.928 44.1979C103.586 45.7799 105.322 47.7119 108.206 47.7119C111.272 47.7119 113.862 45.9059 113.862 41.5099L113.862 30.8138L111.384 30.8138L111.384 31.7799L111.398 31.7799ZM108.388 40.0118C106.582 40.0118 105.07 38.4999 105.07 36.4279C105.07 34.3279 106.582 32.8019 108.388 32.8019C110.166 32.8019 111.566 34.3419 111.566 36.4279C111.58 38.4999 110.18 40.0118 108.388 40.0118ZM142.534 24.4999L136.276 24.4999L136.276 41.9999L138.894 41.9999L138.894 35.3639L142.548 35.3639C145.446 35.3639 148.288 33.2639 148.288 29.9319C148.274 26.5999 145.418 24.4999 142.534 24.4999ZM142.59 32.9279L138.88 32.9279L138.88 26.9219L142.59 26.9219C144.55 26.9219 145.656 28.5459 145.656 29.9178C145.656 31.2899 144.55 32.9279 142.59 32.9279ZM158.746 30.4219C156.856 30.4219 154.896 31.2618 154.084 33.0958L156.408 34.0619C156.898 33.0958 157.822 32.7739 158.788 32.7739C160.132 32.7739 161.518 33.5858 161.532 35.0278L161.532 35.2098C161.056 34.9438 160.048 34.5378 158.802 34.5378C156.296 34.5378 153.762 35.9099 153.762 38.4719C153.762 40.8098 155.806 42.3219 158.102 42.3219C159.852 42.3219 160.832 41.5378 161.434 40.6139L161.518 40.6139L161.518 41.9579L164.038 41.9579L164.038 35.2518C164.052 32.1578 161.728 30.4219 158.746 30.4219ZM158.424 40.0118C157.57 40.0118 156.38 39.5779 156.38 38.5278C156.38 37.1838 157.864 36.6659 159.152 36.6659C160.3 36.6659 160.846 36.9178 161.532 37.2539C161.435 38.0116 161.066 38.7085 160.495 39.2156C159.924 39.7227 159.188 40.0055 158.424 40.0118ZM173.236 30.7999L170.24 38.3878L170.156 38.3878L167.048 30.7999L164.234 30.7999L168.896 41.4119L166.236 47.3059L168.966 47.3059L176.148 30.7999L173.236 30.7999ZM149.716 41.9999L152.334 41.9999L152.334 24.4999L149.716 24.4999L149.716 41.9999Z" fill="#FFFFFF" fill-opacity="1.000000" fill-rule="nonzero"/>
	<path id="Vector" d="M14.098 12.9919C14.014 13.328 13.958 13.6639 13.958 14.028L13.958 41.986C13.958 42.35 14 42.6859 14.098 43.022L29.512 27.6079L14.098 12.9919Z" fill="#4285F4" fill-opacity="1.000000" fill-rule="nonzero"/>
	<path id="Vector" d="M29.0081 27.188L14.098 43.0079L14.098 43.022C14.2594 43.6212 14.557 44.1752 14.9677 44.6405C15.3784 45.1057 15.8911 45.4698 16.4657 45.7042C17.0404 45.9387 17.6614 46.0372 18.2804 45.9921C18.8993 45.9469 19.4995 45.7594 20.0341 45.444L20.076 45.416L36.848 35.7419L29.0081 27.188Z" fill="#EA4335" fill-opacity="1.000000" fill-rule="nonzero"/>
	<path id="Vector" d="M44.0861 24.4999L44.072 24.4858L36.834 20.2859L28.672 27.5519L36.8621 35.7419L44.072 31.5839C44.7097 31.2386 45.2426 30.7278 45.6144 30.1052C45.9861 29.4825 46.1831 28.7712 46.1846 28.046C46.1859 27.3209 45.9918 26.6088 45.6224 25.9846C45.2532 25.3606 44.7224 24.8477 44.0861 24.4999Z" fill="#FBBC04" fill-opacity="1.000000" fill-rule="nonzero"/>
	<path id="Vector" d="M29.12 27.9999L36.834 20.2858L20.076 10.5698C19.5403 10.2495 18.9377 10.0575 18.3154 10.0089C17.6932 9.96021 17.0681 10.0563 16.4891 10.2896C15.9102 10.5227 15.3931 10.8867 14.9781 11.3531C14.5634 11.8196 14.2621 12.3756 14.098 12.9778L29.12 27.9999Z" fill="#34A853" fill-opacity="1.000000" fill-rule="nonzero"/>
</svg>
