<svg width="71.571533" height="51.001556" viewBox="0 0 71.5715 51.0016" fill="none" xmlns="http://www.w3.org/2000/svg" xmlns:xlink="http://www.w3.org/1999/xlink">
	<desc>
			Created with Pixso.
	</desc>
	<defs/>
	<path id="Vector" d="M10.3655 47.4931C11.6516 48.7791 13.3958 49.5016 15.2144 49.5016C17.033 49.5016 18.7771 48.7791 20.063 47.4931C21.3489 46.2072 22.0715 44.463 22.0715 42.6444C22.0715 40.8258 21.3489 39.0816 20.063 37.7957C18.7771 36.5097 17.033 35.7873 15.2144 35.7873C13.3958 35.7873 11.6516 36.5097 10.3655 37.7957C9.07959 39.0816 8.35718 40.8258 8.35718 42.6444C8.35718 44.463 9.07959 46.2072 10.3655 47.4931ZM51.5083 47.4931C52.7944 48.7791 54.5386 49.5016 56.3572 49.5016C58.1758 49.5016 59.9199 48.7791 61.2058 47.4931C62.4919 46.2072 63.2144 44.463 63.2144 42.6444C63.2144 40.8258 62.4919 39.0816 61.2058 37.7957C59.9199 36.5097 58.1758 35.7873 56.3572 35.7873C54.5386 35.7873 52.7944 36.5097 51.5083 37.7957C50.2224 39.0816 49.5 40.8258 49.5 42.6444C49.5 44.463 50.2224 46.2072 51.5083 47.4931ZM8.35718 42.6444L1.5 42.6444L1.5 4.93013C1.5 4.02081 1.86133 3.14874 2.50415 2.50576C3.14722 1.86278 4.01929 1.50156 4.92847 1.50156L52.9285 1.50156C57.4751 1.50156 61.8354 4.03012 65.0503 8.53099C68.2654 13.0319 70.0715 19.1364 70.0715 25.5016L70.0715 42.6444L63.2144 42.6444M49.5 42.6444L22.0715 42.6444M49.5 1.50156L54.6428 25.5016L70.0715 25.5016M1.5 18.6444L52.9285 18.6444M18.6428 1.50156L18.6428 18.6444M35.7856 1.50156L35.7856 18.6444" stroke="#030712" stroke-opacity="1.000000" stroke-width="3.000000" stroke-linejoin="round"/>
</svg>
