<svg width="64.000000" height="64.000000" viewBox="0 0 64 64" fill="none" xmlns="http://www.w3.org/2000/svg" xmlns:xlink="http://www.w3.org/1999/xlink">
	<desc>
			Created with Pixso.
	</desc>
	<defs>
		<clipPath id="clip6_32">
			<rect id="tabler-icon-users-group" width="64.000000" height="64.000000" fill="white" fill-opacity="0"/>
		</clipPath>
	</defs>
	<rect id="tabler-icon-users-group" width="64.000000" height="64.000000" fill="#FFFFFF" fill-opacity="0"/>
	<g clip-path="url(#clip6_32)">
		<path id="Vector" d="M28.2288 38.4379C29.229 39.4381 30.5854 40 32 40C33.4146 40 34.771 39.4381 35.7712 38.4379C36.7715 37.4377 37.3333 36.0812 37.3333 34.6666C37.3333 33.2522 36.7715 31.8956 35.7712 30.8954C34.771 29.8953 33.4146 29.3334 32 29.3334C30.5854 29.3334 29.229 29.8953 28.2288 30.8954C27.2285 31.8956 26.6667 33.2522 26.6667 34.6666C26.6667 36.0812 27.2285 37.4377 28.2288 38.4379ZM21.3333 56L21.3333 53.3334C21.3333 51.9188 21.8953 50.5623 22.8955 49.5621C23.8955 48.5619 25.2522 48 26.6667 48L37.3333 48C38.7478 48 40.1045 48.5619 41.1045 49.5621C42.1047 50.5623 42.6667 51.9188 42.6667 53.3334L42.6667 56M41.562 17.1046C42.5623 18.1047 43.9189 18.6666 45.3333 18.6666C46.7478 18.6666 48.1045 18.1047 49.1045 17.1046C50.1047 16.1044 50.6667 14.7478 50.6667 13.3334C50.6667 11.9188 50.1047 10.5623 49.1045 9.56213C48.1045 8.56189 46.7478 8 45.3333 8C43.9189 8 42.5623 8.56189 41.562 9.56213C40.562 10.5623 40 11.9188 40 13.3334C40 14.7478 40.562 16.1044 41.562 17.1046ZM45.3333 26.6666L50.6667 26.6666C52.0811 26.6666 53.4377 27.2285 54.438 28.2288C55.438 29.229 56 30.5856 56 32L56 34.6666M14.8955 17.1046C15.8955 18.1047 17.2522 18.6666 18.6667 18.6666C20.0811 18.6666 21.4377 18.1047 22.438 17.1046C23.438 16.1044 24 14.7478 24 13.3334C24 11.9188 23.438 10.5623 22.438 9.56213C21.4377 8.56189 20.0811 8 18.6667 8C17.2522 8 15.8955 8.56189 14.8955 9.56213C13.8953 10.5623 13.3333 11.9188 13.3333 13.3334C13.3333 14.7478 13.8953 16.1044 14.8955 17.1046ZM8 34.6666L8 32C8 30.5856 8.56201 29.229 9.56201 28.2288C10.5623 27.2285 11.9189 26.6666 13.3333 26.6666L18.6667 26.6666" stroke="#1DD100" stroke-opacity="1.000000" stroke-width="4.000000" stroke-linejoin="round"/>
	</g>
</svg>
