<svg width="64.000000" height="64.000000" viewBox="0 0 64 64" fill="none" xmlns="http://www.w3.org/2000/svg" xmlns:xlink="http://www.w3.org/1999/xlink">
	<desc>
			Created with Pixso.
	</desc>
	<defs>
		<clipPath id="clip6_50">
			<rect id="tabler-icon-bus-stop" width="64.000000" height="64.000000" fill="white" fill-opacity="0"/>
		</clipPath>
	</defs>
	<rect id="tabler-icon-bus-stop" width="64.000000" height="64.000000" fill="#FFFFFF" fill-opacity="0"/>
	<g clip-path="url(#clip6_50)">
		<path id="Vector" d="M8.78101 8.78101C9.28113 8.28101 9.95947 8 10.6666 8L16 8C16.7073 8 17.3855 8.28101 17.8856 8.78101C18.3857 9.28113 18.6666 9.95947 18.6666 10.6666L18.6666 21.3334C18.6666 22.0405 18.3857 22.7189 17.8856 23.219C17.3855 23.719 16.7073 24 16 24L10.6666 24C9.95947 24 9.28113 23.719 8.78101 23.219C8.28101 22.7189 8 22.0405 8 21.3334L8 10.6666C8 9.95947 8.28101 9.28113 8.78101 8.78101ZM44.2288 49.1046C45.229 50.1047 46.5856 50.6666 48 50.6666C49.4146 50.6666 50.771 50.1047 51.7712 49.1046C52.7715 48.1044 53.3334 46.7478 53.3334 45.3334C53.3334 43.9188 52.7715 42.5623 51.7712 41.5621C50.771 40.5619 49.4146 40 48 40C46.5856 40 45.229 40.5619 44.2288 41.5621C43.2285 42.5623 42.6666 43.9188 42.6666 45.3334C42.6666 46.7478 43.2285 48.1044 44.2288 49.1046ZM26.6666 13.3334L45.3334 13.3334C52.696 13.3334 58.6666 21.6907 58.6666 32L58.6666 45.3334L53.3334 45.3334M42.6666 45.3334L21.3334 45.3334M42.6666 13.3334L46.6666 32L58.6666 32M25.3334 26.6666L45.3334 26.6666M32 13.3334L32 26.6666M13.3334 24L13.3334 53.3334" stroke="#1DD100" stroke-opacity="1.000000" stroke-width="4.000000" stroke-linejoin="round"/>
	</g>
</svg>
