<svg width="48.000000" height="48.000000" viewBox="0 0 48 48" fill="none" xmlns="http://www.w3.org/2000/svg" xmlns:xlink="http://www.w3.org/1999/xlink">
	<desc>
			Created with Pixso.
	</desc>
	<defs>
		<clipPath id="clip6_107">
			<rect id="tabler-icon-coin-taka-filled" width="48.000000" height="48.000000" fill="white" fill-opacity="0"/>
		</clipPath>
	</defs>
	<rect id="tabler-icon-coin-taka-filled" width="48.000000" height="48.000000" fill="#FFFFFF" fill-opacity="0"/>
	<g clip-path="url(#clip6_107)">
		<path id="Vector" d="M34 6.68003C37.0404 8.43541 39.5652 10.9602 41.3206 14.0006C43.0759 17.041 44 20.4899 44 24.0007C44 27.5114 43.0758 30.9603 41.3204 34.0007C39.5649 37.0411 37.0402 39.5658 33.9998 41.3212C30.9594 43.0765 27.5104 44.0006 23.9996 44.0005C20.4889 44.0005 17.04 43.0763 13.9996 41.3209C10.9594 39.5654 8.43457 37.0406 6.67932 34.0002C4.92395 30.9597 3.99988 27.5108 4 24L4.01001 23.352C4.12195 19.898 5.12708 16.532 6.92725 13.582C8.72742 10.6321 11.2614 8.19893 14.2817 6.51979C17.3022 4.84066 20.7063 3.97282 24.162 4.0009C27.6177 4.02899 31.0072 4.95203 34 6.68003ZM21.578 15.448C21.1038 14.4991 20.272 13.7774 19.2657 13.4417C18.2594 13.1061 17.1609 13.1839 16.212 13.658L15.106 14.212C14.6486 14.4587 14.3051 14.8738 14.1483 15.3693C13.9917 15.8649 14.0339 16.402 14.2665 16.8668C14.4989 17.3317 14.9031 17.6878 15.3936 17.8598C15.884 18.0317 16.4221 18.006 16.894 17.788L18 17.236L17.998 20L16 20C15.5101 20.0001 15.0374 20.1799 14.6713 20.5055C14.3052 20.831 14.0713 21.2795 14.014 21.766L14 22C14 22.5305 14.2107 23.0392 14.5858 23.4142C14.9608 23.7893 15.4696 24 16 24L17.998 24L18 30C17.9999 31.5305 18.5846 33.0031 19.6345 34.1165C20.6844 35.23 22.1202 35.9002 23.6479 35.99L24 36L25 36C26.8566 36 28.637 35.2625 29.9497 33.9498C31.2625 32.637 32 30.8565 32 29L32 28C32 27.4696 31.7893 26.9609 31.4142 26.5858C31.0392 26.2107 30.5304 26 30 26L28 26C27.4696 26 26.9608 26.2107 26.5858 26.5858C26.2107 26.9609 26 27.4696 26 28L26.014 28.234C26.0667 28.6805 26.2682 29.0961 26.5861 29.414C26.9039 29.7319 27.3196 29.9334 27.766 29.986L27.83 29.99L27.79 30.104C27.5686 30.6633 27.1842 31.1432 26.6868 31.4813C26.1892 31.8194 25.6016 32.0001 25 32L24 32C23.4696 32 22.9608 31.7893 22.5858 31.4142C22.2107 31.0392 22 30.5305 22 30L21.998 24L30 24C30.4899 24 30.9626 23.8201 31.3287 23.4946C31.6948 23.1691 31.9287 22.7205 31.986 22.234L32 22C32 21.4696 31.7893 20.9609 31.4142 20.5858C31.0392 20.2107 30.5304 20 30 20L21.998 20L22 17.236C22 16.74 21.9078 16.2483 21.728 15.786L21.578 15.448Z" fill="#1DD100" fill-opacity="1.000000" fill-rule="nonzero"/>
		<path id="Vector" d="M41.3206 14.0006C43.0759 17.041 44 20.4899 44 24.0007C44 27.5114 43.0758 30.9603 41.3204 34.0007C39.5649 37.0411 37.0402 39.5658 33.9998 41.3212C30.9594 43.0765 27.5105 44.0006 23.9996 44.0005C20.4889 44.0005 17.04 43.0763 13.9996 41.3209C10.9594 39.5654 8.43457 37.0406 6.67932 34.0001C4.92395 30.9597 3.99988 27.5108 4 24L4.01001 23.352C4.12195 19.898 5.12708 16.532 6.92725 13.582C8.72742 10.6321 11.2614 8.19893 14.2817 6.51979C17.3022 4.84066 20.7063 3.97282 24.162 4.0009C27.6177 4.02899 31.0072 4.95203 34 6.68003C37.0404 8.43541 39.5652 10.9602 41.3206 14.0006ZM19.2657 13.4417C18.2594 13.1061 17.1609 13.1839 16.212 13.658L15.106 14.212C14.6486 14.4587 14.3051 14.8738 14.1483 15.3693C13.9917 15.8649 14.0339 16.402 14.2665 16.8668C14.4989 17.3317 14.9031 17.6878 15.3936 17.8598C15.884 18.0317 16.4221 18.006 16.894 17.788L18 17.236L17.998 20L16 20C15.5101 20.0001 15.0374 20.1799 14.6713 20.5055C14.3052 20.831 14.0713 21.2795 14.014 21.766L14 22C14 22.5305 14.2107 23.0392 14.5858 23.4142C14.9608 23.7893 15.4696 24 16 24L17.998 24L18 30C17.9999 31.5305 18.5846 33.0031 19.6345 34.1165C20.6844 35.23 22.1202 35.9002 23.6479 35.99L24 36L25 36C26.8566 36 28.637 35.2625 29.9497 33.9498C31.2625 32.637 32 30.8565 32 29L32 28C32 27.4696 31.7893 26.9609 31.4142 26.5858C31.0392 26.2107 30.5304 26 30 26L28 26C27.4696 26 26.9608 26.2107 26.5858 26.5858C26.2107 26.9609 26 27.4696 26 28L26.014 28.234C26.0667 28.6805 26.2682 29.0961 26.5861 29.414C26.9039 29.7319 27.3196 29.9334 27.766 29.986L27.83 29.99L27.79 30.104C27.5686 30.6633 27.1842 31.1432 26.6868 31.4813C26.1892 31.8194 25.6016 32.0001 25 32L24 32C23.4696 32 22.9608 31.7893 22.5858 31.4142C22.2107 31.0392 22 30.5305 22 30L21.998 24L30 24C30.4899 24 30.9626 23.8201 31.3287 23.4946C31.6948 23.1691 31.9287 22.7205 31.986 22.234L32 22C32 21.4696 31.7893 20.9609 31.4142 20.5858C31.0392 20.2107 30.5304 20 30 20L21.998 20L22 17.236C22 16.74 21.9078 16.2483 21.728 15.786L21.578 15.448C21.1038 14.4991 20.272 13.7774 19.2657 13.4417Z" stroke="#1DD100" stroke-opacity="1.000000" stroke-width="0.000000" stroke-linejoin="round"/>
	</g>
</svg>
