<svg width="64.000000" height="64.000000" viewBox="0 0 64 64" fill="none" xmlns="http://www.w3.org/2000/svg" xmlns:xlink="http://www.w3.org/1999/xlink">
	<desc>
			Created with Pixso.
	</desc>
	<defs>
		<clipPath id="clip6_41">
			<rect id="tabler-icon-ticket" width="64.000000" height="64.000000" fill="white" fill-opacity="0"/>
		</clipPath>
	</defs>
	<rect id="tabler-icon-ticket" width="64.000000" height="64.000000" fill="#FFFFFF" fill-opacity="0"/>
	<g clip-path="url(#clip6_41)">
		<path id="Vector" d="M40 13.3333L40 18.6666M40 29.3333L40 34.6666M40 45.3333L40 50.6666M50.6667 13.3333C52.0811 13.3333 53.4377 13.8951 54.438 14.8954C55.438 15.8955 56 17.2521 56 18.6666L56 26.6666C54.5854 26.6666 53.229 27.2285 52.2288 28.2286C51.2285 29.2289 50.6667 30.5854 50.6667 31.9999C50.6667 33.4144 51.2285 34.771 52.2288 35.7711C53.229 36.7714 54.5854 37.3333 56 37.3333L56 45.3333C56 46.7477 55.438 48.1042 54.438 49.1045C53.4377 50.1047 52.0811 50.6666 50.6667 50.6666L13.3333 50.6666C11.9189 50.6666 10.5623 50.1047 9.56201 49.1045C8.56201 48.1042 8 46.7477 8 45.3333L8 37.3333C9.41455 37.3333 10.771 36.7714 11.7712 35.7711C12.7715 34.771 13.3333 33.4144 13.3333 31.9999C13.3333 30.5854 12.7715 29.2289 11.7712 28.2286C10.771 27.2285 9.41455 26.6666 8 26.6666L8 18.6666C8 17.2521 8.56201 15.8955 9.56201 14.8954C10.5623 13.8951 11.9189 13.3333 13.3333 13.3333L50.6667 13.3333Z" stroke="#1DD100" stroke-opacity="1.000000" stroke-width="4.000000" stroke-linejoin="round"/>
	</g>
</svg>
